<?xml version="1.0" encoding="UTF-8"?>
<svg width="147px" height="4px" viewBox="0 0 147 4" version="1.1" xmlns="http://www.w3.org/2000/svg" xmlns:xlink="http://www.w3.org/1999/xlink">
    <!-- Generator: Sketch 54.1 (76490) - https://sketchapp.com -->
    <title>Line</title>
    <desc>Created with Sketch.</desc>
    <g id="01.Parcours-Debut-XP" stroke="none" stroke-width="1" fill="none" fill-rule="evenodd" fill-opacity="0.5">
        <g id="01-Connexion" transform="translate(-646.000000, -590.000000)" fill="#FFFFFF" fill-rule="nonzero">
            <g id="Group" transform="translate(589.000000, 395.000000)">
                <g id="Group-5" transform="translate(40.000000, 145.000000)">
                    <g id="Group-6" transform="translate(0.000000, 48.000000)">
                        <path d="M18.5,5.70138889 L19.5,5.70138889 C20.3284271,5.70138889 21,5.02981601 21,4.20138889 C21,3.37296176 20.3284271,2.70138889 19.5,2.70138889 L18.5,2.70138889 C17.6715729,2.70138889 17,3.37296176 17,4.20138889 C17,5.02981601 17.6715729,5.70138889 18.5,5.70138889 Z M29.5,5.70138889 L30.5,5.70138889 C31.3284271,5.70138889 32,5.02981601 32,4.20138889 C32,3.37296176 31.3284271,2.70138889 30.5,2.70138889 L29.5,2.70138889 C28.6715729,2.70138889 28,3.37296176 28,4.20138889 C28,5.02981601 28.6715729,5.70138889 29.5,5.70138889 Z M40.5,5.70138889 L41.5,5.70138889 C42.3284271,5.70138889 43,5.02981601 43,4.20138889 C43,3.37296176 42.3284271,2.70138889 41.5,2.70138889 L40.5,2.70138889 C39.6715729,2.70138889 39,3.37296176 39,4.20138889 C39,5.02981601 39.6715729,5.70138889 40.5,5.70138889 Z M51.5,5.70138889 L52.5,5.70138889 C53.3284271,5.70138889 54,5.02981601 54,4.20138889 C54,3.37296176 53.3284271,2.70138889 52.5,2.70138889 L51.5,2.70138889 C50.6715729,2.70138889 50,3.37296176 50,4.20138889 C50,5.02981601 50.6715729,5.70138889 51.5,5.70138889 Z M62.5,5.70138889 L63.5,5.70138889 C64.3284271,5.70138889 65,5.02981601 65,4.20138889 C65,3.37296176 64.3284271,2.70138889 63.5,2.70138889 L62.5,2.70138889 C61.6715729,2.70138889 61,3.37296176 61,4.20138889 C61,5.02981601 61.6715729,5.70138889 62.5,5.70138889 Z M73.5,5.70138889 L74.5,5.70138889 C75.3284271,5.70138889 76,5.02981601 76,4.20138889 C76,3.37296176 75.3284271,2.70138889 74.5,2.70138889 L73.5,2.70138889 C72.6715729,2.70138889 72,3.37296176 72,4.20138889 C72,5.02981601 72.6715729,5.70138889 73.5,5.70138889 Z M84.5,5.70138889 L85.5,5.70138889 C86.3284271,5.70138889 87,5.02981601 87,4.20138889 C87,3.37296176 86.3284271,2.70138889 85.5,2.70138889 L84.5,2.70138889 C83.6715729,2.70138889 83,3.37296176 83,4.20138889 C83,5.02981601 83.6715729,5.70138889 84.5,5.70138889 Z M95.5,5.70138889 L96.5,5.70138889 C97.3284271,5.70138889 98,5.02981601 98,4.20138889 C98,3.37296176 97.3284271,2.70138889 96.5,2.70138889 L95.5,2.70138889 C94.6715729,2.70138889 94,3.37296176 94,4.20138889 C94,5.02981601 94.6715729,5.70138889 95.5,5.70138889 Z M106.5,5.70138889 L107.5,5.70138889 C108.328427,5.70138889 109,5.02981601 109,4.20138889 C109,3.37296176 108.328427,2.70138889 107.5,2.70138889 L106.5,2.70138889 C105.671573,2.70138889 105,3.37296176 105,4.20138889 C105,5.02981601 105.671573,5.70138889 106.5,5.70138889 Z M117.5,5.70138889 L118.5,5.70138889 C119.328427,5.70138889 120,5.02981601 120,4.20138889 C120,3.37296176 119.328427,2.70138889 118.5,2.70138889 L117.5,2.70138889 C116.671573,2.70138889 116,3.37296176 116,4.20138889 C116,5.02981601 116.671573,5.70138889 117.5,5.70138889 Z M128.5,5.70138889 L129.5,5.70138889 C130.328427,5.70138889 131,5.02981601 131,4.20138889 C131,3.37296176 130.328427,2.70138889 129.5,2.70138889 L128.5,2.70138889 C127.671573,2.70138889 127,3.37296176 127,4.20138889 C127,5.02981601 127.671573,5.70138889 128.5,5.70138889 Z M139.5,5.70138889 L140.5,5.70138889 C141.328427,5.70138889 142,5.02981601 142,4.20138889 C142,3.37296176 141.328427,2.70138889 140.5,2.70138889 L139.5,2.70138889 C138.671573,2.70138889 138,3.37296176 138,4.20138889 C138,5.02981601 138.671573,5.70138889 139.5,5.70138889 Z M150.5,5.70138889 L151.5,5.70138889 C152.328427,5.70138889 153,5.02981601 153,4.20138889 C153,3.37296176 152.328427,2.70138889 151.5,2.70138889 L150.5,2.70138889 C149.671573,2.70138889 149,3.37296176 149,4.20138889 C149,5.02981601 149.671573,5.70138889 150.5,5.70138889 Z M161.5,5.70138889 L162.5,5.70138889 C163.328427,5.70138889 164,5.02981601 164,4.20138889 C164,3.37296176 163.328427,2.70138889 162.5,2.70138889 L161.5,2.70138889 C160.671573,2.70138889 160,3.37296176 160,4.20138889 C160,5.02981601 160.671573,5.70138889 161.5,5.70138889 Z" id="Line"></path>
                    </g>
                </g>
            </g>
        </g>
    </g>
</svg>