<?xml version="1.0" encoding="UTF-8"?>
<svg width="144px" height="144px" viewBox="0 0 144 144" version="1.1" xmlns="http://www.w3.org/2000/svg" xmlns:xlink="http://www.w3.org/1999/xlink">
    <!-- Generator: Sketch 55.1 (78136) - https://sketchapp.com -->
    <title>Group 3</title>
    <desc>Created with Sketch.</desc>
    <g id="03.Jeu-1" stroke="none" stroke-width="1" fill="none" fill-rule="evenodd">
        <g id="03.01Interaction1" transform="translate(-650.000000, -738.000000)">
            <g id="Group-6" transform="translate(167.000000, 711.000000)">
                <g id="Group-3" transform="translate(485.000000, 29.000000)">
                    <g id="Group-8">
                        <g id="Group-9" transform="translate(30.674157, 30.674157)">
                            <circle id="Oval-Copy" stroke="#D7CDFE" stroke-width="7" fill="#FFFFFF" cx="39.3258427" cy="39.3258427" r="39.3258427"></circle>
                            <g id="PierreViolette" transform="translate(24.382022, 17.303371)">
                                <g id="Group-3">
                                    <polygon id="Fill-1283" fill="#8D6EFF" points="16.2193424 43.7506852 6.63012504 38.0640369 0.397435897 25.7416717 2.79504235 12.945668 12.3836554 0.149664355 24.8496379 8.20629681 30.6025641 20.5280647 29.1644836 33.7983042"></polygon>
                                    <polygon id="Fill-1283-Copy" fill="#5A37DB" points="16.2193424 43.7506852 6.63012504 38.0640369 0.397435897 25.7416717 2.79504235 12.945668 12.3836554 0.149664355 11.1115159 12.945668 18.8797576 24.4837472 15.1351663 31.7362584"></polygon>
                                </g>
                            </g>
                        </g>
                        <!-- <path d="M70,140 C31.3400675,140 0,108.659932 0,70 C0,31.3400675 31.3400675,0 70,0 C108.659932,0 140,31.3400675 140,70 C140,108.659932 108.659932,140 70,140 Z M70,123.483146 C99.5379259,123.483146 123.483146,99.5379259 123.483146,70 C123.483146,40.4620741 99.5379259,16.5168539 70,16.5168539 C40.4620741,16.5168539 16.5168539,40.4620741 16.5168539,70 C16.5168539,99.5379259 40.4620741,123.483146 70,123.483146 Z" id="Combined-Shape" stroke="#FFFFFF" stroke-width="4" fill-opacity="0.4" fill="#FFFFFF" opacity="0.85"></path> -->
                    </g>
                    <path d="M71.5,130 C105.465512,130 133,102.465512 133,68.5 C133,34.5344879 105.465512,7 71.5,7 C37.5344879,7 10,34.5344879 10,68.5 C10,102.465512 37.5344879,130 71.5,130 Z" id="Délimitations" stroke="#FFFFFF" stroke-width="15" opacity="0.85" stroke-dasharray="2,30.10000038146973"></path>
                </g>
            </g>
        </g>
    </g>
</svg>