<?xml version="1.0" encoding="utf-8"?>
<!-- Generator: Adobe Illustrator 22.1.0, SVG Export Plug-In . SVG Version: 6.00 Build 0)  -->
<svg version="1.1" id="Calque_1" xmlns="http://www.w3.org/2000/svg" xmlns:xlink="http://www.w3.org/1999/xlink" x="0px" y="0px"
	 viewBox="0 0 1920 1080" style="enable-background:new 0 0 1920 1080;" xml:space="preserve">
<style type="text/css">
	.st0{fill:#FFFFFF;};
</style>
<g>
	<path class="st0 shadow" d="M372.4,772.7h10.7c11.1,0,19.4-7.6,19.4-17.6v-86.7h98.2c79.1,0,143.5-64.9,143.5-144.7
		c0-78.8-64.6-142.9-144.1-142.9H372.4c-9.5,0-17.6,8.1-17.6,17.6v356.7C354.8,764.7,362.8,772.7,372.4,772.7z M498.3,428.5
		c54.1,0,98.2,42.4,98.2,94.6c0,54.1-43.8,98.2-97.6,98.2h-96.4V428.5H498.3z"/>
	<path class="st0 shadow" d="M726.2,647.8h13c11.6,0,19.3-7.8,19.3-19.3V245.1c0-10.5-8.8-19.3-19.3-19.3h-11.7c-10.5,0-19.3,8.8-19.3,19.3
		v383.4C708.2,639.5,715.9,647.8,726.2,647.8z"/>
	<path class="st0 shadow" d="M739.9,690.4h-11.7c-10.5,0-19.3,8.8-19.3,19.3v17c0,84.6,39.8,129.4,115,129.4c37.9,0,65.2-15.1,81.3-27.6
		l0.4,4.2c1.7,10.4,8.8,16.9,18.5,16.9h7.8c10.5,0,19.3-8.8,19.3-19.3V568.5c0-10.5-8.8-19.3-19.3-19.3h-11.7
		c-11.2,0-19.3,8.1-19.3,19.3v200.4c-6.5,8.3-32.6,38.2-75.1,38.2c-44.2,0-66.6-27-66.6-80.3v-17
		C759.2,699.3,750.4,690.4,739.9,690.4z"/>
	<path class="st0 shadow" d="M1050.4,282.5c10.5,4.5,20.4,0.9,24.8-9.2l5.3-13.2c1.8-4.9,1.7-10.1-0.5-14.7c-2.4-5.1-7.2-9.1-13-11
		l-0.8-0.3c-6.5-2.4-21.6-8.2-43.3-8.2c-34,0-57.9,13.6-72.9,26.4l-0.3-3.4c-1.4-9.7-9-16.5-18.6-16.5h-7.8
		c-10.5,0-19.3,8.8-19.3,19.3v241.6c0,11,7.7,19.3,18,19.3h13c11.6,0,19.3-7.8,19.3-19.3V312.6c5-7.9,26.3-37,66.6-37
		c13.5,0,23.8,4.5,28.2,6.4L1050.4,282.5z"/>
	<path class="st0 shadow" d="M1098.4,314.8c-18.2,0-33,15.1-33,33.6c0,17.8,14.8,32.3,33,32.3c18.2,0,33-14.5,33-32.3
		C1131.4,329.9,1116.6,314.8,1098.4,314.8z"/>
	<path class="st0 shadow" d="M1111.9,428.9h-11.7c-10.5,0-19.3,8.8-19.3,19.3v180c0,11,7.7,19.3,18,19.3h13c11.6,0,19.3-7.8,19.3-19.3v-180
		C1131.3,437.7,1122.4,428.9,1111.9,428.9z"/>
	<path class="st0 shadow" d="M1325.4,433c-80.6,0-139.1,61.8-139.1,147c0,87.3,57.2,148.3,139.1,148.3c40.9,0,85.8-17.5,102.1-33.8
		c8.7-8.7,8.1-18.6,3.8-24.4l-6.5-9.1c-6.6-9.2-15.5-10.1-26.6-2.7c-15.2,10.2-39.9,22.3-70.8,22.3c-46.5,0-82.7-33.5-89.7-81.2
		h195.8c20.6,0,20.6-25.4,20.6-36.2C1454.1,487.7,1400,433,1325.4,433z M1325.4,480.7c34,0,73.3,19.5,77.9,73.4h-164.7
		C1246.1,510.4,1280.4,480.7,1325.4,480.7z"/>
	<path class="st0 shadow" d="M1547.5,328.8h-11.7c-10.5,0-19.3,8.8-19.3,19.3v465.1c0,11,7.7,19.3,18,19.3h13c11.6,0,19.3-7.8,19.3-19.3
		V348.1C1566.8,337.6,1558,328.8,1547.5,328.8z"/>
</g>
</svg>
