<?xml version="1.0" encoding="UTF-8"?>
<svg width="492px" height="123px" viewBox="0 0 492 123" version="1.1" xmlns="http://www.w3.org/2000/svg" xmlns:xlink="http://www.w3.org/1999/xlink">
    <!-- Generator: Sketch 54.1 (76490) - https://sketchapp.com -->
    <title>Group 2</title>
    <desc>Created with Sketch.</desc>
    <g id="01.Parcours-Debut-XP" stroke="none" stroke-width="1" fill="none" fill-rule="evenodd">
        <g id="05-Choix_persos" transform="translate(-129.000000, -267.000000)" fill="#FFFFFF" fill-rule="nonzero">
            <g id="Group-2" transform="translate(129.000000, 267.000000)">
                <polygon id="L" points="19.12 77.96 49.93 77.96 49.93 92 0.79 92 0.79 0.22 19.12 0.22"></polygon>
                <path d="M138.96,94.54 L102.17,94.54 L95.67,113 L76.3,113 L110.1,22.26 L131.03,22.26 L164.7,113 L145.33,113 L138.96,94.54 Z M134.02,80.63 L120.5,41.89 L106.98,80.63 L134.02,80.63 Z" id="A"></path>
                <polygon id="M" points="283.465 6.26 283.465 97 265.265 97 265.265 33.69 241.995 97 226.135 97 202.865 33.95 202.865 97 184.535 97 184.535 6.26 206.765 6.26 234.325 74.51 261.365 6.26"></polygon>
                <path d="M366.96,104.54 L330.17,104.54 L323.67,123 L304.3,123 L338.1,32.26 L359.03,32.26 L392.7,123 L373.33,123 L366.96,104.54 Z M362.02,90.63 L348.5,51.89 L334.98,90.63 L362.02,90.63 Z" id="A"></path>
                <path d="M471.12,112 L449.67,76.25 L441.61,76.25 L441.61,112 L423.28,112 L423.28,20.22 L458.25,20.22 C468.910053,20.22 477.034972,22.819974 482.625,28.02 C488.215028,33.220026 491.01,40.0666242 491.01,48.56 C491.01,55.493368 489.081686,61.2999766 485.225,65.98 C481.368314,70.6600234 475.800036,73.7799922 468.52,75.34 L491.4,112 L471.12,112 Z M441.61,63.64 L456.69,63.64 C467.176719,63.64 472.42,59.0033797 472.42,49.73 C472.42,45.3099779 471.141679,41.8650123 468.585,39.395 C466.028321,36.9249876 462.06336,35.69 456.69,35.69 L441.61,35.69 L441.61,63.64 Z" id="R"></path>
            </g>
        </g>
    </g>
</svg>