<?xml version="1.0" encoding="UTF-8"?>
<svg width="27px" height="9px" viewBox="0 0 27 9" version="1.1" xmlns="http://www.w3.org/2000/svg" xmlns:xlink="http://www.w3.org/1999/xlink">
    <!-- Generator: Sketch 54.1 (76490) - https://sketchapp.com -->
    <title>Group 3</title>
    <desc>Created with Sketch.</desc>
    <g id="01.Parcours-Debut-XP" stroke="none" stroke-width="1" fill="none" fill-rule="evenodd">
        <g id="01-Connexion" transform="translate(-1371.000000, -47.000000)" fill="#FFFFFF">
            <g id="Group-3" transform="translate(1371.000000, 47.000000)">
                <path d="M19.8402652,5.03939012 L19.8083758,4.98376495 C19.4234647,4.30438791 18.3990865,2.5000075 16.6580351,2.5000075 C15.4680555,2.5000075 14.3838147,3.89501168 14.0979287,4.38376315 C14.0140091,4.53563861 11.6480366,8.73877622 8.26607785,8.73877622 C5.60191117,8.73877622 4.31402547,6.67939504 3.27901741,5.02501507 C2.8448735,4.331888 2.43534598,3.67688603 1.98106137,3.24500973 C1.02829449,2.33875702 0.0290921183,2.51938256 0,2.52750758 L0,0.0418751256 C0.185741986,-0.0262500787 1.83839809,-0.025000075 3.43175104,1.34125402 C4.1327592,1.94250583 4.61725486,2.8006334 5.1129398,3.59313578 C6.13899643,5.2331407 6.84056406,6.23876872 8.26607785,6.23876872 C10.0351024,6.23876872 11.7134939,3.92938679 12.2108572,3.03938412 C12.2970146,2.89250868 14.0201632,0 16.6580351,0 C19.6310258,0 21.1868946,2.74375823 21.698804,3.64563594 C22.286241,4.67688903 23.5481904,6.61752238 26.1244596,6.61752238 L26.1244596,8.97315192 C26.1106595,8.97356859 25.9195844,8.97356859 25.5512343,8.97315192 C21.9839825,8.97747418 19.8626438,5.07939024 19.8402652,5.03939012 Z" id="Fill-1"></path>
            </g>
        </g>
    </g>
</svg>