<?xml version="1.0" encoding="UTF-8"?>
<svg width="272px" height="177px" viewBox="0 0 272 177" version="1.1" xmlns="http://www.w3.org/2000/svg" xmlns:xlink="http://www.w3.org/1999/xlink">
    <!-- Generator: Sketch 54.1 (76490) - https://sketchapp.com -->
    <title>Group 23</title>
    <desc>Created with Sketch.</desc>
    <g id="01.Parcours-Debut-XP" stroke="none" stroke-width="1" fill="none" fill-rule="evenodd">
        <g id="09-Tuto" transform="translate(-1006.000000, -431.000000)">
            <g id="Group-23" transform="translate(1008.000000, 433.000000)">
                <path d="M146.5,34.4998 C147.5,50.4998 147.5,85.8638 147.5,101.9998 C147.5,105.8058 145,108.9998 139.907,111.7998 L11.093,171.7998 C6.899,171.7998 3.5,168.7148 3.5,164.9088 L0.5,48.3908 C0.5,44.5848 5,42.9998 8.093,41.4998 L136.907,0.4998 C141.101,0.4998 144.5,3.5848 144.5,7.3908 C144.5,8.4998 145.5,16.4998 145.5,24.4998" id="Stroke-1" stroke="#FFFFFF" stroke-width="5" stroke-linecap="round"></path>
                <path d="M81.5,32 C81.5,34.485 79.485,36.5 77,36.5 C74.515,36.5 72.5,34.485 72.5,32 C72.5,29.515 74.515,27.5 77,27.5 C79.485,27.5 81.5,29.515 81.5,32" id="Fill-3" fill="#FFFFFF"></path>
                <path d="M85.781,69.247 C85.91,76.422 86.167,101.735 86.167,108.972 C86.167,110.678 85.845,112.111 85.19,113.366 L68.363,119 C67.823,119 67.385,117.616 67.385,115.91 L67,63.658 C67,61.951 67.579,61.241 67.976,60.568 L84.547,54 C85.087,54 85.523,55.383 85.523,57.09 C85.523,57.588 85.652,61.175 85.652,64.763" id="Fill-5" fill="#FFFFFF"></path>
                <path d="M267.057528,146.462927 C267.057528,146.462927 238.422264,126.37275 236.686793,122.901809 C234.951322,119.430868 230.612646,107.414839 229.744911,100.472957 C228.877175,93.5310746 226.27397,84.8537218 223.670764,80.5150454 C221.067558,76.1763691 213.691808,66.1974134 212.824073,66.1974134 C211.956338,66.1974134 195.469367,59.2555311 193.733897,60.1232664 C191.998426,60.9910017 191.130691,65.3296781 193.733897,66.1974134 C196.337103,67.0651486 208.776955,75.3121047 210.220867,77.477972 C213.691808,82.6843836 213.691808,92.2294717 208.485396,94.8326775 C203.278985,97.4358834 192.866161,93.097207 188.527485,92.2294717 C184.188809,91.3617364 178.114662,89.6262659 173.775985,89.6262659 C171.032206,89.6262659 165.098633,93.097207 172.90825,99.1713539 C173.776853,99.4316745 174.610747,99.6668308 175.407328,99.8768227 C182.575689,101.77456 186.792015,101.77456 186.792015,101.77456 C186.792015,101.77456 196.337103,104.377766 199.808044,113.922854 C200.675779,116.309126 202.204489,121.905519 204.617661,126.203412 C207.030833,130.501305 213.851313,134.208991 218.691808,136.351706 C223.670764,138.555713 231.693922,146.462927 236.686793,150.136746" id="Stroke-7" stroke="#FFFFFF" stroke-width="4" stroke-linecap="round" stroke-linejoin="round"></path>
                <path d="M175.945324,102.208427 L175.077588,118.695398 C175.077588,118.695398 175.077588,122.166339 180.284,119.563133 C185.490412,116.959927 191.564559,116.092192 191.564559,114.356721 L191.564559,103.626307" id="Stroke-9" stroke="#FFFFFF" stroke-width="4" stroke-linecap="round" stroke-linejoin="round"></path>
                <path d="M176.813059,88.3246629 L178.548529,61.4248693 C178.548529,61.4248693 179.416265,57.9539282 183.754941,57.9539282 L191.564559,55.9539282 C194.167764,55.9539282 195.0355,57.9539282 194.167764,60.5571341" id="Stroke-11" stroke="#FFFFFF" stroke-width="4" stroke-linecap="round" stroke-linejoin="round"></path>
                <path d="M193.300029,77.0441043 C193.300029,77.0441043 203.558396,73.2191272 207.106565,74.6977481" id="Stroke-13" stroke="#FFFFFF" stroke-width="4" stroke-linecap="round" stroke-linejoin="round"></path>
                <path d="M193.300029,83.1182513 C193.300029,83.1182513 206.894838,79.936266 211.811426,84.1308983" id="Stroke-15" stroke="#FFFFFF" stroke-width="4" stroke-linecap="round" stroke-linejoin="round"></path>
                <path d="M194,90 L211.811426,90" id="Stroke-17" stroke="#FFFFFF" stroke-width="4" stroke-linecap="round" stroke-linejoin="round"></path>
                <path d="M190.551911,112 L200.203731,112" id="Stroke-19" stroke="#FFFFFF" stroke-width="4"></path>
                <path d="M193,67 L192,93" id="Stroke-21" stroke="#FFFFFF" stroke-width="4" stroke-linecap="round" stroke-linejoin="round"></path>
            </g>
        </g>
    </g>
</svg>