<?xml version="1.0" encoding="UTF-8"?>
<svg width="10px" height="43px" viewBox="0 0 10 43" version="1.1" xmlns="http://www.w3.org/2000/svg" xmlns:xlink="http://www.w3.org/1999/xlink">
    <!-- Generator: Sketch 54.1 (76490) - https://sketchapp.com -->
    <title>Group 7</title>
    <desc>Created with Sketch.</desc>
    <g id="01.Parcours-Debut-XP" stroke="none" stroke-width="1" fill="none" fill-rule="evenodd">
        <g id="01-Connexion" transform="translate(-716.000000, -539.000000)">
            <g id="Group" transform="translate(589.000000, 395.000000)">
                <g id="Group-5" transform="translate(40.000000, 145.000000)">
                    <g id="Group-7" transform="translate(88.000000, 0.000000)">
                        <path d="M2.70833333,17.5 L2.70833333,18.5 C2.70833333,19.3284271 3.37990621,20 4.20833333,20 C5.03676046,20 5.70833333,19.3284271 5.70833333,18.5 L5.70833333,17.5 C5.70833333,16.6715729 5.03676046,16 4.20833333,16 C3.37990621,16 2.70833333,16.6715729 2.70833333,17.5 Z M2.70833333,28.5 L2.70833333,29.5 C2.70833333,30.3284271 3.37990621,31 4.20833333,31 C5.03676046,31 5.70833333,30.3284271 5.70833333,29.5 L5.70833333,28.5 C5.70833333,27.6715729 5.03676046,27 4.20833333,27 C3.37990621,27 2.70833333,27.6715729 2.70833333,28.5 Z M2.70833333,39.5 L2.70833333,40.5 C2.70833333,41.3284271 3.37990621,42 4.20833333,42 C5.03676046,42 5.70833333,41.3284271 5.70833333,40.5 L5.70833333,39.5 C5.70833333,38.6715729 5.03676046,38 4.20833333,38 C3.37990621,38 2.70833333,38.6715729 2.70833333,39.5 Z" id="Line" fill-opacity="0.5" fill="#FFFFFF" fill-rule="nonzero"></path>
                        <circle id="Oval-2" stroke="#FFFFFF" stroke-width="2" cx="4" cy="4" r="4"></circle>
                    </g>
                </g>
            </g>
        </g>
    </g>
</svg>