<?xml version="1.0" encoding="UTF-8"?>
<svg width="446px" height="133px" viewBox="0 0 446 133" version="1.1" xmlns="http://www.w3.org/2000/svg" xmlns:xlink="http://www.w3.org/1999/xlink">
    <!-- Generator: Sketch 54.1 (76490) - https://sketchapp.com -->
    <title>Group 4</title>
    <desc>Created with Sketch.</desc>
    <g id="01.Parcours-Debut-XP" stroke="none" stroke-width="1" fill="none" fill-rule="evenodd">
        <g id="05-Choix_persos" transform="translate(-893.000000, -276.000000)" fill="#FFFFFF" fill-rule="nonzero">
            <g id="Group-4" transform="translate(892.500000, 276.000000)">
                <polygon id="Z" points="21.255 77.18 64.025 77.18 64.025 92 0.975 92 0.975 77.96 42.835 14.91 1.625 14.91 1.625 0.22 63.505 0.22 63.505 14.26"></polygon>
                <path d="M141.96,114.54 L105.17,114.54 L98.67,133 L79.3,133 L113.1,42.26 L134.03,42.26 L167.7,133 L148.33,133 L141.96,114.54 Z M137.02,100.63 L123.5,61.89 L109.98,100.63 L137.02,100.63 Z" id="A"></path>
                <polygon id="N" points="286.87 105 268.54 105 227.46 42.6 227.46 105 209.13 105 209.13 13.22 227.46 13.22 268.54 76.14 268.54 13.22 286.87 13.22"></polygon>
                <polygon id="I" points="348.165 39.22 348.165 131 329.835 131 329.835 39.22"></polygon>
                <polygon id="T" points="445.95 1.22 445.95 15.78 420.6 15.78 420.6 93 402.27 93 402.27 15.78 377.05 15.78 377.05 1.22"></polygon>
            </g>
        </g>
    </g>
</svg>